# File created by Blade
# Date/Time:  Wed Apr 08 17:39:41 2015
#---------------------------------------------------------
:version 1.10
:name HOM
:units
  mass 1.0
  length 1.000000
  angle deg
:documentation
     Acclaim Skeleton File
:root
   axis xyz
   order TX TY TZ RX RY RZ
   position 0.000000 0.000000 0.000000
   orientation 0 0 0
:bonedata
   begin
      id 1
      name Spine_dum
      direction 0.000000 1.000000 0.000000
      length 5.893853
      axis 0.0 0.0 0.0 xyz
   end
   begin
      id 2
      name LeftUpLeg_dum
      direction 1.000000 0.000000 0.000000
      length 3.697939
      axis 0.0 0.0 0.0 xyz
   end
   begin
      id 3
      name RightUpLeg_dum
      direction -1.000000 0.000000 0.000000
      length 3.697939
      axis 0.0 0.0 0.0 xyz
   end
   begin
      id 4
      name Spine
      direction 0.000000 1.000000 0.000000
      length 0.000000
      axis 0.0 0.0 0.0 xyz
      dof rx ry rz
   end
   begin
      id 5
      name Spine_dum1
      direction 0.000000 1.000000 0.000000
      length 16.447146
      axis 0.0 0.0 0.0 xyz
   end
   begin
      id 6
      name Spine_dum2
      direction 0.000000 1.000000 0.000000
      length 10.900383
      axis 0.0 0.0 0.0 xyz
   end
   begin
      id 7
      name Spine_dum3
      direction 0.000000 1.000000 0.000000
      length 10.900383
      axis 0.0 0.0 0.0 xyz
   end
   begin
      id 8
      name Head
      direction 0.000000 1.000000 0.000000
      length 4.527550
      axis 0.0 0.0 0.0 xyz
      dof rx ry rz
   end
   begin
      id 9
      name LeftShoulder
      direction 1.000000 0.000000 0.000000
      length 8.219464
      axis 0.0 0.0 -90.0 xyz
      dof rx ry rz
   end
   begin
      id 10
      name LeftArm
      direction 1.000000 0.000000 0.000000
      length 11.094937
      axis 0.0 0.0 -90.0 xyz
      dof rx ry rz
   end
   begin
      id 11
      name LeftForeArm
      direction 1.000000 0.000000 0.000000
      length 9.103875
      axis 0.0 0.0 -90.0 xyz
      dof ry rz rx
   end
   begin
      id 12
      name LeftHand
      direction 0.000000 0.000000 0.000000
      length 0.000000
      axis 0.0 0.0 -90.0 xyz
      dof rx ry rz
   end
   begin
      id 13
      name LeftHand_dum1
      direction 0.000000 0.000000 0.000000
      length 0.000000
      axis 0.0 0.0 -90.0 xyz
   end
   begin
      id 14
      name LeftHand_dum2
      direction 1.000000 0.000000 0.000000
      length 3.937000
      axis 0.0 0.0 -90.0 xyz
   end
   begin
      id 15
      name LeftHandThumb1
      direction 0.000000 0.000000 1.000000
      length 3.937000
      axis 0.0 0.0 -90.0 xyz
      dof rx rz ry
   end
   begin
      id 16
      name RightShoulder
      direction -1.000000 0.000000 0.000000
      length 8.219464
      axis 0.0 0.0 90.0 xyz
      dof rx ry rz
   end
   begin
      id 17
      name RightArm
      direction -1.000000 0.000000 0.000000
      length 11.094937
      axis 0.0 0.0 90.0 xyz
      dof rx ry rz
   end
   begin
      id 18
      name RightForeArm
      direction -1.000000 0.000000 0.000000
      length 9.103875
      axis 0.0 0.0 90.0 xyz
      dof ry rz rx
   end
   begin
      id 19
      name RightHand
      direction 0.000000 0.000000 0.000000
      length 0.000000
      axis 0.0 0.0 90.0 xyz
      dof rx ry rz
   end
   begin
      id 20
      name RightHand_dum1
      direction 0.000000 0.000000 0.000000
      length 0.000000
      axis 0.0 0.0 90.0 xyz
   end
   begin
      id 21
      name RightHand_dum2
      direction -1.000000 0.000000 0.000000
      length 3.937000
      axis 0.0 0.0 90.0 xyz
   end
   begin
      id 22
      name RightHandThumb1
      direction 0.000000 0.000000 1.000000
      length 3.937000
      axis 0.0 0.0 90.0 xyz
      dof rx rz ry
   end
   begin
      id 23
      name LeftUpLeg
      direction 0.000000 -1.000000 0.000000
      length 16.181467
      axis 0.0 0.0 0.0 xyz
      dof rx ry rz
   end
   begin
      id 24
      name LeftLeg
      direction 0.000000 -1.000000 0.000000
      length 16.501392
      axis 0.0 0.0 0.0 xyz
      dof rx ry rz
   end
   begin
      id 25
      name LeftFoot
      direction 0.000000 -0.258819 0.965926
      length 6.408245
      axis 15.0 0.0 0.0 xyz
      dof rx ry rz
   end
   begin
      id 26
      name LeftToeBase
      direction 0.000000 0.000000 1.000000
      length 2.952750
      axis 0.0 0.0 0.0 xyz
      dof rx ry rz
   end
   begin
      id 27
      name RightUpLeg
      direction 0.000000 -1.000000 0.000000
      length 16.181467
      axis 0.0 0.0 0.0 xyz
      dof rx ry rz
   end
   begin
      id 28
      name RightLeg
      direction 0.000000 -1.000000 0.000000
      length 16.501392
      axis 0.0 0.0 0.0 xyz
      dof rx ry rz
   end
   begin
      id 29
      name RightFoot
      direction 0.000000 -0.258819 0.965926
      length 6.408245
      axis 15.0 0.0 0.0 xyz
      dof rx ry rz
   end
   begin
      id 30
      name RightToeBase
      direction 0.000000 0.000000 1.000000
      length 2.952750
      axis 0.0 0.0 0.0 xyz
      dof rx ry rz
   end
:hierarchy
   begin
      root Spine_dum LeftUpLeg_dum RightUpLeg_dum
      Spine_dum Spine
      LeftUpLeg_dum LeftUpLeg
      RightUpLeg_dum RightUpLeg
      Spine Spine_dum1 Spine_dum2 Spine_dum3
      Spine_dum1 Head
      Spine_dum2 LeftShoulder
      Spine_dum3 RightShoulder
      LeftShoulder LeftArm
      LeftArm LeftForeArm
      LeftForeArm LeftHand
      LeftHand LeftHand_dum1 LeftHand_dum2
      LeftHand_dum1 LeftHandThumb1
      RightShoulder RightArm
      RightArm RightForeArm
      RightForeArm RightHand
      RightHand RightHand_dum1 RightHand_dum2
      RightHand_dum1 RightHandThumb1
      LeftUpLeg LeftLeg
      LeftLeg LeftFoot
      LeftFoot LeftToeBase
      RightUpLeg RightLeg
      RightLeg RightFoot
      RightFoot RightToeBase
   end

# File created by Blade
# Date/Time:  Wed Apr 08 17:39:35 2015
# Frame Rate: 120.000 fps
#------------------------------------------------------
:FULLY-SPECIFIED
:DEGREES
1
root 8.368394 36.382818 -3.474708 -152.306937 -84.422391 -179.474801
Spine -26.557517 1.029941 -0.525756
Head 10.565545 10.792730 3.923884
LeftShoulder -5.363249 11.901097 29.763352
LeftArm 12.250579 -37.753165 -35.925107
LeftForeArm 13.381227 -0.000000 1.362447
LeftHand -10.703866 0.000000 -9.576468
LeftHandThumb1 -26.253704 0.000000 33.147579
RightShoulder -22.845556 -40.054947 -13.850431
RightArm 54.246023 48.354487 56.932875
RightForeArm 5.698837 -0.000000 -1.581258
RightHand -1.224955 -0.000000 13.379091
RightHandThumb1 -24.326973 -0.000000 -32.862282
LeftUpLeg -30.448119 18.357002 -0.808738
LeftLeg 11.985158 -0.000000 -0.000000
LeftFoot -7.773796 8.944848 -13.333188
LeftToeBase 7.018970 -0.000000 -0.000000
RightUpLeg -30.608732 -4.443923 -3.074724
RightLeg 12.495035 -0.000000 -0.000000
RightFoot -12.540535 -10.284286 18.396086
RightToeBase 9.966414 -0.000000 -0.000000
2
root 8.376318 36.382791 -3.498211 -152.103710 -84.428804 -179.689487
Spine -26.507321 1.039160 -0.523888
Head 10.633789 10.829385 3.975248
LeftShoulder -5.372850 11.908483 29.735419
LeftArm 12.205441 -37.557002 -35.932547
LeftForeArm 13.373493 0.000000 1.477737
LeftHand -10.693016 -0.000000 -9.550374
LeftHandThumb1 -26.253704 0.000000 33.147579
RightShoulder -22.834535 -40.066546 -13.816777
RightArm 54.255623 48.213819 56.890064
RightForeArm 5.656403 -0.000000 -1.544560
RightHand -1.174811 0.000000 13.305959
RightHandThumb1 -24.326973 -0.000000 -32.862282
LeftUpLeg -30.537688 18.420083 -0.806612
LeftLeg 12.130394 -0.000000 -0.000000
LeftFoot -7.723376 8.854535 -13.388430
LeftToeBase 6.972533 -0.000000 -0.000000
RightUpLeg -30.672653 -4.467203 -3.038645
RightLeg 12.615044 -0.000000 -0.000000
RightFoot -12.573122 -10.264211 18.334572
RightToeBase 9.912374 -0.000000 -0.000000
3
root 8.384985 36.383344 -3.521989 -151.957924 -84.419740 -179.853718
Spine -26.448306 1.057700 -0.514769
Head 10.725796 10.871259 4.016322
LeftShoulder -5.393992 11.957896 29.681787
LeftArm 12.193193 -37.394172 -35.954245
LeftForeArm 13.378318 -0.000000 1.613935
LeftHand -10.758683 -0.000000 -9.505878
LeftHandThumb1 -26.253704 0.000000 33.147579
RightShoulder -22.778571 -40.101536 -13.800915
RightArm 54.216121 48.074766 56.804318
RightForeArm 5.636404 -0.000000 -1.488895
RightHand -1.210854 -0.000000 13.341854
RightHandThumb1 -24.326973 -0.000000 -32.862282
LeftUpLeg -30.621142 18.478687 -0.795924
LeftLeg 12.282085 -0.000000 -0.000000
LeftFoot -7.660227 8.796939 -13.422709
LeftToeBase 6.863030 -0.000000 -0.000000
RightUpLeg -30.726072 -4.468248 -3.009242
RightLeg 12.719592 -0.000000 -0.000000
RightFoot -12.594910 -10.241056 18.305367
RightToeBase 9.857123 -0.000000 -0.000000
4
root 8.392393 36.384358 -3.549513 -151.951048 -84.440832 -179.901522
Spine -26.362698 1.043396 -0.467388
Head 10.828317 10.930631 4.035836
LeftShoulder -5.471140 12.073290 29.592539
LeftArm 12.277111 -37.240428 -36.027773
LeftForeArm 13.338693 -0.000000 1.767489
LeftHand -10.818446 -0.000000 -9.436473
LeftHandThumb1 -26.253704 0.000000 33.147579
RightShoulder -22.744166 -40.170943 -13.755503
RightArm 54.242868 47.912629 56.714604
RightForeArm 5.672806 0.000000 -1.433564
RightHand -1.150114 -0.000000 13.369941
RightHandThumb1 -24.326973 -0.000000 -32.862282
LeftUpLeg -30.676158 18.485634 -0.731374
LeftLeg 12.435655 -0.000000 -0.000000
LeftFoot -7.600359 8.761825 -13.492188
LeftToeBase 6.743501 -0.000000 -0.000000
RightUpLeg -30.728210 -4.457220 -2.964249
RightLeg 12.788727 -0.000000 -0.000000
RightFoot -12.621001 -10.260673 18.261185
RightToeBase 9.847947 -0.000000 -0.000000
